<svg xmlns="http://www.w3.org/2000/svg" viewBox="0 0 454.21 354.67"><defs><style>.cls-1{fill:#0c033a;}</style></defs><g id="Calque_2" data-name="Calque 2"><g id="Calque_1-2" data-name="Calque 1"><path class="cls-1" d="M399,57.57H172.94A55.18,55.18,0,0,1,228.12,2.39H454.21A55.18,55.18,0,0,1,399,57.57Z"/><path class="cls-1" d="M230.3,299.49l1,51.38a56.39,56.39,0,0,1-56.39-56.39V247.59c.78-17.07.95-92.08-53.93-93.05C74,152.92,54.49,197.77,55.17,197.7V350.32A55.16,55.16,0,0,1,0,295.15V0A55.17,55.17,0,0,1,55.17,55.18V156.45c12.67-9.22,29.31-27.77,61.91-27.77,37,.35,60.9,9.45,80,27.21C235.41,191.77,228.69,251.7,230.3,299.49Z"/><path class="cls-1" d="M304.17,211.07h-42c-3.17-19.51-10.06-39.45-19.67-55.18H359.34A55.17,55.17,0,0,1,304.17,211.07Z"/><path class="cls-1" d="M454,304.43a55.19,55.19,0,0,1-55,50.24H271.65a4.59,4.59,0,0,1-4.58-4.49l-.89-46a4.59,4.59,0,0,1,4.59-4.68H449.41A4.59,4.59,0,0,1,454,304.43Z"/></g></g></svg>