<svg id="visual" viewBox="0 0 900 600" width="900" height="600" xmlns="http://www.w3.org/2000/svg" xmlns:xlink="http://www.w3.org/1999/xlink" version="1.1"><rect x="0" y="0" width="900" height="600" fill="#1e82cf"></rect><defs><linearGradient id="grad1_0" x1="33.3%" y1="0%" x2="100%" y2="100%"><stop offset="20%" stop-color="#0f2783" stop-opacity="1"></stop><stop offset="80%" stop-color="#0f2783" stop-opacity="1"></stop></linearGradient></defs><defs><linearGradient id="grad1_1" x1="33.3%" y1="0%" x2="100%" y2="100%"><stop offset="20%" stop-color="#0f2783" stop-opacity="1"></stop><stop offset="80%" stop-color="#043e98" stop-opacity="1"></stop></linearGradient></defs><defs><linearGradient id="grad1_2" x1="33.3%" y1="0%" x2="100%" y2="100%"><stop offset="20%" stop-color="#0055ac" stop-opacity="1"></stop><stop offset="80%" stop-color="#043e98" stop-opacity="1"></stop></linearGradient></defs><defs><linearGradient id="grad1_3" x1="33.3%" y1="0%" x2="100%" y2="100%"><stop offset="20%" stop-color="#0055ac" stop-opacity="1"></stop><stop offset="80%" stop-color="#076bbe" stop-opacity="1"></stop></linearGradient></defs><defs><linearGradient id="grad1_4" x1="33.3%" y1="0%" x2="100%" y2="100%"><stop offset="20%" stop-color="#1e82cf" stop-opacity="1"></stop><stop offset="80%" stop-color="#076bbe" stop-opacity="1"></stop></linearGradient></defs><defs><linearGradient id="grad2_0" x1="0%" y1="0%" x2="66.7%" y2="100%"><stop offset="20%" stop-color="#0f2783" stop-opacity="1"></stop><stop offset="80%" stop-color="#0f2783" stop-opacity="1"></stop></linearGradient></defs><defs><linearGradient id="grad2_1" x1="0%" y1="0%" x2="66.7%" y2="100%"><stop offset="20%" stop-color="#043e98" stop-opacity="1"></stop><stop offset="80%" stop-color="#0f2783" stop-opacity="1"></stop></linearGradient></defs><defs><linearGradient id="grad2_2" x1="0%" y1="0%" x2="66.7%" y2="100%"><stop offset="20%" stop-color="#043e98" stop-opacity="1"></stop><stop offset="80%" stop-color="#0055ac" stop-opacity="1"></stop></linearGradient></defs><defs><linearGradient id="grad2_3" x1="0%" y1="0%" x2="66.7%" y2="100%"><stop offset="20%" stop-color="#076bbe" stop-opacity="1"></stop><stop offset="80%" stop-color="#0055ac" stop-opacity="1"></stop></linearGradient></defs><defs><linearGradient id="grad2_4" x1="0%" y1="0%" x2="66.7%" y2="100%"><stop offset="20%" stop-color="#076bbe" stop-opacity="1"></stop><stop offset="80%" stop-color="#1e82cf" stop-opacity="1"></stop></linearGradient></defs><g transform="translate(900, 0)"><path d="M0 486.7C-69.8 487.1 -139.6 487.5 -186.3 449.7C-232.9 411.9 -256.4 335.9 -282.1 282.1C-307.9 228.4 -336 196.8 -370.5 153.5C-405 110.1 -445.9 55.1 -486.7 0L0 0Z" fill="#1377c7"></path><path d="M0 389.4C-55.9 389.7 -111.7 390 -149 359.8C-186.3 329.5 -205.1 268.7 -225.7 225.7C-246.3 182.7 -268.8 157.4 -296.4 122.8C-324 88.1 -356.7 44.1 -389.4 0L0 0Z" fill="#0060b5"></path><path d="M0 292C-41.9 292.3 -83.8 292.5 -111.8 269.8C-139.7 247.1 -153.8 201.5 -169.3 169.3C-184.7 137 -201.6 118.1 -222.3 92.1C-243 66.1 -267.5 33 -292 0L0 0Z" fill="#0049a2"></path><path d="M0 194.7C-27.9 194.8 -55.9 195 -74.5 179.9C-93.2 164.8 -102.5 134.4 -112.9 112.9C-123.2 91.3 -134.4 78.7 -148.2 61.4C-162 44.1 -178.3 22 -194.7 0L0 0Z" fill="#0a338e"></path><path d="M0 97.3C-14 97.4 -27.9 97.5 -37.3 89.9C-46.6 82.4 -51.3 67.2 -56.4 56.4C-61.6 45.7 -67.2 39.4 -74.1 30.7C-81 22 -89.2 11 -97.3 0L0 0Z" fill="#0f2783"></path></g><g transform="translate(0, 600)"><path d="M0 -486.7C70.2 -487.3 140.4 -487.9 186.3 -449.7C232.2 -411.5 253.8 -334.4 281.4 -281.4C309 -228.4 342.6 -199.4 377.9 -156.5C413.1 -113.6 449.9 -56.8 486.7 0L0 0Z" fill="#1377c7"></path><path d="M0 -389.4C56.1 -389.9 112.3 -390.3 149 -359.8C185.7 -329.2 203 -267.6 225.1 -225.1C247.2 -182.7 274.1 -159.5 302.3 -125.2C330.5 -90.9 359.9 -45.4 389.4 0L0 0Z" fill="#0060b5"></path><path d="M0 -292C42.1 -292.4 84.2 -292.8 111.8 -269.8C139.3 -246.9 152.3 -200.7 168.9 -168.9C185.4 -137 205.6 -119.7 226.7 -93.9C247.9 -68.2 270 -34.1 292 0L0 0Z" fill="#0049a2"></path><path d="M0 -194.7C28.1 -194.9 56.1 -195.2 74.5 -179.9C92.9 -164.6 101.5 -133.8 112.6 -112.6C123.6 -91.4 137.1 -79.8 151.1 -62.6C165.2 -45.4 180 -22.7 194.7 0L0 0Z" fill="#0a338e"></path><path d="M0 -97.3C14 -97.5 28.1 -97.6 37.3 -89.9C46.4 -82.3 50.8 -66.9 56.3 -56.3C61.8 -45.7 68.5 -39.9 75.6 -31.3C82.6 -22.7 90 -11.4 97.3 0L0 0Z" fill="#0f2783"></path></g></svg>